HIERARCHY
ROOT Hips
{
	OFFSET 0.000000 0.000000 0.000000
	CHANNELS 6 Xposition Yposition Zposition Yrotation Xrotation Zrotation
	JOINT Chest
	{
		OFFSET 0.000000 -0.009281 11.569106
		CHANNELS 3 Yrotation Xrotation Zrotation
		JOINT Chest2
		{
			OFFSET -0.000000 0.016865 9.269641
			CHANNELS 3 Yrotation Xrotation Zrotation
			JOINT Chest3
			{
				OFFSET -0.000000 0.000001 8.374491
				CHANNELS 3 Yrotation Xrotation Zrotation
				JOINT Chest4
				{
					OFFSET -0.000000 0.000001 8.374493
					CHANNELS 3 Yrotation Xrotation Zrotation
					JOINT Neck
					{
						OFFSET -0.000000 0.000002 12.152554
						CHANNELS 3 Yrotation Xrotation Zrotation
						JOINT Head
						{
							OFFSET -0.000000 0.040101 7.802319
							CHANNELS 3 Yrotation Xrotation Zrotation
							End Site
							{
								OFFSET -0.000000 0.020947 14.853096
							}
						}
					}
					JOINT RightCollar
					{
						OFFSET 2.894404 0.000001 6.791374
						CHANNELS 3 Yrotation Xrotation Zrotation
						JOINT RightShoulder
						{
							OFFSET 13.574684 0.000001 0.000000
							CHANNELS 3 Yrotation Xrotation Zrotation
							JOINT RightElbow
							{
								OFFSET 23.923903 0.000002 0.000000
								CHANNELS 3 Yrotation Xrotation Zrotation
								JOINT RightWrist
								{
									OFFSET 19.846718 0.012767 0.000000
									CHANNELS 3 Yrotation Xrotation Zrotation
									End Site
									{
										OFFSET 14.973145 0.000001 0.000000
									}
								}
							}
						}
					}
					JOINT LeftCollar
					{
						OFFSET -2.894404 0.000001 6.791374
						CHANNELS 3 Yrotation Xrotation Zrotation
						JOINT LeftShoulder
						{
							OFFSET -13.574684 -0.000001 0.000000
							CHANNELS 3 Yrotation Xrotation Zrotation
							JOINT LeftElbow
							{
								OFFSET -23.923903 -0.000002 0.000000
								CHANNELS 3 Yrotation Xrotation Zrotation
								JOINT LeftWrist
								{
									OFFSET -19.846718 0.012763 0.000000
									CHANNELS 3 Yrotation Xrotation Zrotation
									End Site
									{
										OFFSET -14.973145 -0.000001 0.000000
									}
								}
							}
						}
					}
				}
			}
		}
	}
	JOINT RightHip
	{
		OFFSET 9.469263 0.004643 0.045487
		CHANNELS 3 Yrotation Xrotation Zrotation
		JOINT RightKnee
		{
			OFFSET 0.000000 0.002661 -40.478676
			CHANNELS 3 Yrotation Xrotation Zrotation
			JOINT RightAnkle
			{
				OFFSET 0.000000 0.049106 -35.224068
				CHANNELS 3 Yrotation Xrotation Zrotation
				JOINT RightToe
				{
					OFFSET -0.000001 12.539529 -6.151390
					CHANNELS 3 Yrotation Xrotation Zrotation
					End Site
					{
						OFFSET -0.000001 5.044994 -1.291870
					}
				}
			}
		}
	}
	JOINT LeftHip
	{
		OFFSET -9.469263 0.004641 0.045487
		CHANNELS 3 Yrotation Xrotation Zrotation
		JOINT LeftKnee
		{
			OFFSET 0.000000 0.002661 -40.478676
			CHANNELS 3 Yrotation Xrotation Zrotation
			JOINT LeftAnkle
			{
				OFFSET 0.000000 0.049106 -35.224068
				CHANNELS 3 Yrotation Xrotation Zrotation
				JOINT LeftToe
				{
					OFFSET -0.000001 12.539529 -6.151390
					CHANNELS 3 Yrotation Xrotation Zrotation
					End Site
					{
						OFFSET -0.000001 5.044994 -1.291870
					}
				}
			}
		}
	}
}
MOTION
Frames: 15
Frame Time: 0.016667
11.468454 4.894598 82.986488 -7.664489 -1.322513 -104.817012 -1.791376 -4.244738 6.832171 -0.730036 -1.912345 2.952509 -0.730036 -1.912345 2.952508 -0.538249 -1.437828 2.211895 1.591188 -22.201305 -0.339713 2.780754 -5.051471 -0.172708 10.935824 -0.677407 -13.896372 77.751117 7.785468 11.727100 0.196199 -19.971594 3.887159 -13.267195 1.507124 18.298473 -6.359901 -9.340806 -16.595650 -75.438859 11.606084 -18.468987 0.140675 14.595711 -12.420574 32.713403 -11.563516 -26.372370 -0.806024 -11.478971 -5.267559 1.629658 -2.555047 -3.501934 -0.609766 5.970462 0.940883 -0.005386 0.041084 0.014028 0.181988 -10.706765 -0.485068 0.228482 -1.041145 -4.684177 -1.283578 4.268901 1.652462 0.055859 -0.064179 -0.004948 
11.462763 4.887513 82.986961 -7.710601 -1.293565 -104.649174 -1.800441 -4.242625 6.845714 -0.733404 -1.911145 2.957281 -0.733404 -1.911146 2.957283 -0.540766 -1.436950 2.215467 1.487742 -22.303049 -0.093428 2.661232 -5.244057 0.241643 10.934220 -0.651528 -13.923826 77.902692 7.992735 11.682684 0.303964 -18.086566 3.973595 -13.753230 1.881904 18.459949 -6.358144 -9.406908 -16.528974 -75.566269 11.484626 -18.561256 0.096127 14.716660 -12.746917 36.079235 -9.221543 -28.011927 -0.819220 -11.513392 -5.357954 1.656911 -2.600757 -3.570177 -0.630093 6.010947 0.936598 0.000800 0.043460 0.014372 0.173742 -10.697516 -0.549091 0.242265 -1.092833 -4.742768 -1.310170 4.277073 1.624656 0.053433 -0.069049 -0.004666 
11.459582 4.885735 82.987335 -7.754891 -1.265172 -104.482982 -1.807655 -4.244575 6.852223 -0.734876 -1.912056 2.958860 -0.734876 -1.912056 2.958860 -0.541861 -1.437642 2.216643 1.391489 -22.391474 0.133336 2.548964 -5.411612 0.622927 10.923940 -0.637955 -13.932080 78.054487 8.210872 11.630511 0.463516 -16.189022 4.064790 -14.276388 2.374653 18.686230 -6.375863 -9.455268 -16.464111 -75.757890 11.342881 -18.622852 0.076591 15.010770 -13.026762 39.552816 -6.453090 -29.668504 -0.841704 -11.539814 -5.448186 1.696524 -2.662122 -3.619400 -0.656495 6.059414 0.915481 0.007115 0.046050 0.013833 0.162046 -10.685572 -0.620280 0.260496 -1.150610 -4.801280 -1.332373 4.289925 1.584966 0.048350 -0.073282 -0.005788 
11.454990 4.885713 82.987610 -7.788513 -1.234722 -104.314733 -1.816914 -4.237005 6.858045 -0.738068 -1.909188 2.959789 -0.738068 -1.909188 2.959789 -0.544266 -1.435507 2.217335 1.311139 -22.480748 0.334795 2.458052 -5.580485 0.962834 10.920641 -0.575880 -13.943792 78.180627 8.426551 11.522727 0.657650 -14.376467 4.151461 -14.854335 2.992837 18.981099 -6.403861 -9.475299 -16.399554 -76.024623 11.197280 -18.660724 0.081442 15.498825 -13.236024 42.780453 -3.256830 -31.141749 -0.862040 -11.544740 -5.516479 1.731765 -2.742387 -3.672109 -0.684479 6.114161 0.868243 0.015171 0.050422 0.015211 0.145894 -10.656243 -0.713340 0.281326 -1.218053 -4.857886 -1.346553 4.306223 1.574056 0.041005 -0.077494 -0.007178 
11.451600 4.886650 82.987404 -7.811294 -1.202674 -104.138112 -1.832997 -4.223497 6.867548 -0.744560 -1.903005 2.963500 -0.744559 -1.903005 2.963500 -0.549153 -1.430906 2.220105 1.257005 -22.569819 0.504659 2.405461 -5.748792 1.252833 10.929974 -0.511903 -13.966502 78.310291 8.672861 11.412520 0.861468 -12.676552 4.238396 -15.503756 3.671777 19.375493 -6.420350 -9.485054 -16.350742 -76.363967 11.045396 -18.712398 0.061328 16.269289 -13.449226 45.474443 0.212265 -32.285239 -0.874894 -11.525358 -5.570623 1.757412 -2.835311 -3.730706 -0.712592 6.168487 0.798989 0.024587 0.054093 0.018275 0.132897 -10.607931 -0.854309 0.302991 -1.304093 -4.890630 -1.356447 4.331636 1.565876 0.031158 -0.080272 -0.010023 
11.440397 4.888692 82.987144 -7.819668 -1.168361 -103.959639 -1.851748 -4.205262 6.881789 -0.752221 -1.895646 2.968000 -0.752221 -1.895646 2.968000 -0.554920 -1.425430 2.223467 1.224027 -22.653265 0.644884 2.382758 -5.906468 1.495151 10.938687 -0.479524 -14.005597 78.477357 8.944420 11.319608 1.030315 -11.139743 4.344678 -16.225756 4.390363 19.830916 -6.470220 -9.457183 -16.331838 -76.731178 10.965309 -18.725163 -0.102305 17.410719 -13.771292 47.528537 3.589255 -33.164718 -0.891260 -11.496748 -5.610236 1.794330 -2.936415 -3.796914 -0.748384 6.234017 0.725251 0.034853 0.059107 0.022624 0.118098 -10.529609 -1.042693 0.326564 -1.410167 -4.900372 -1.359811 4.361629 1.578735 0.019358 -0.083500 -0.013069 
11.432086 4.894236 82.986107 -7.826308 -1.132710 -103.775907 -1.872434 -4.173247 6.890015 -0.761146 -1.881019 2.971074 -0.761146 -1.881019 2.971074 -0.561677 -1.414506 2.225765 1.208519 -22.743628 0.762974 2.385181 -6.076903 1.702056 10.946111 -0.471916 -14.045191 78.675037 9.231037 11.205846 1.158792 -9.820198 4.445950 -17.018200 5.179293 20.306709 -6.521696 -9.481897 -16.305854 -77.166849 11.014853 -18.736066 -0.478677 18.913105 -14.280335 48.872913 6.732351 -33.806397 -0.913014 -11.456839 -5.650277 1.837564 -3.043750 -3.866056 -0.789480 6.301190 0.650077 0.046334 0.058471 0.027381 0.095683 -10.441449 -1.283590 0.357861 -1.536219 -4.879373 -1.358812 4.402339 1.609787 0.006036 -0.085944 -0.018584 
11.420788 4.906813 82.985283 -7.839106 -1.101119 -103.601231 -1.894073 -4.132787 6.905291 -0.770410 -1.863664 2.976574 -0.770409 -1.863664 2.976574 -0.568693 -1.401542 2.229889 1.207606 -22.839413 0.855987 2.406817 -6.257198 1.867471 10.950613 -0.466451 -14.096023 78.876445 9.503221 11.078535 1.258548 -8.713450 4.511872 -17.832557 5.977965 20.754828 -6.575520 -9.556358 -16.276150 -77.641984 11.219976 -18.759821 -1.070530 20.612264 -14.962998 49.521959 9.598782 -33.997659 -0.942376 -11.421064 -5.673503 1.887174 -3.158916 -3.941279 -0.829865 6.370148 0.574840 0.056941 0.059943 0.030741 0.067990 -10.347706 -1.541892 0.387119 -1.684428 -4.833380 -1.349219 4.450149 1.647837 -0.006294 -0.087420 -0.022916 
11.409090 4.921675 82.985657 -7.869047 -1.075602 -103.443673 -1.916720 -4.090813 6.932575 -0.781774 -1.846134 2.988941 -0.781774 -1.846134 2.988940 -0.577264 -1.388466 2.239153 1.222360 -22.941634 0.918367 2.448143 -6.449094 1.981634 10.958326 -0.490313 -14.151218 79.073681 9.754711 10.967332 1.333372 -7.819598 4.535686 -18.593568 6.745383 21.131444 -6.614869 -9.634292 -16.221115 -78.122290 11.493180 -18.773953 -1.774542 22.313183 -15.723560 49.472064 12.244678 -33.589863 -0.969355 -11.399195 -5.686076 1.925896 -3.269422 -4.002859 -0.865530 6.430095 0.491743 0.066066 0.061161 0.034954 0.040368 -10.267005 -1.759608 0.410483 -1.846484 -4.795783 -1.337864 4.502577 1.674931 -0.014902 -0.085482 -0.025878 
11.399548 4.934475 82.987656 -7.914121 -1.056008 -103.313202 -1.943613 -4.057720 6.978663 -0.795526 -1.832711 3.009395 -0.795525 -1.832710 3.009394 -0.587583 -1.378492 2.254472 1.255642 -23.041846 0.945172 2.513243 -6.636816 2.036586 10.971286 -0.505901 -14.204597 79.240317 9.975890 10.851746 1.389887 -7.133077 4.533094 -19.210448 7.397342 21.400683 -6.637339 -9.670114 -16.130600 -78.610710 11.742227 -18.785588 -2.424882 23.995737 -16.507377 48.594682 14.550062 -32.535681 -0.996778 -11.397625 -5.708427 1.958747 -3.371974 -4.052212 -0.894647 6.483937 0.434923 0.071830 0.064607 0.038665 0.015302 -10.211734 -1.906500 0.427094 -2.000074 -4.779434 -1.328208 4.553402 1.667716 -0.019894 -0.080839 -0.028038 
11.396162 4.944931 82.989082 -7.966617 -1.046221 -103.204152 -1.967294 -4.029600 7.031781 -0.806360 -1.820414 3.032733 -0.806360 -1.820414 3.032734 -0.595700 -1.369355 2.271961 1.306237 -23.146896 0.938648 2.600500 -6.833072 2.035886 10.982925 -0.502225 -14.228802 79.363848 10.176014 10.709156 1.416239 -6.588891 4.507159 -19.604429 7.838723 21.571264 -6.653480 -9.740278 -16.039994 -79.132967 12.020610 -18.831103 -3.027146 25.811883 -17.329983 46.832852 16.264373 -31.143617 -1.022656 -11.408152 -5.746121 1.995625 -3.471886 -4.078030 -0.922451 6.536017 0.394197 0.073717 0.069320 0.040573 -0.010009 -10.184701 -1.967371 0.453170 -2.130438 -4.821026 -1.320871 4.603299 1.669119 -0.024806 -0.078604 -0.029597 
11.397605 4.954239 82.988228 -8.022675 -1.045045 -103.116916 -1.987303 -4.003449 7.099458 -0.815357 -1.808462 3.061736 -0.815357 -1.808462 3.061736 -0.602422 -1.360474 2.293703 1.376769 -23.260527 0.895817 2.713874 -7.044751 1.974766 10.980969 -0.464422 -14.258295 79.471949 10.342333 10.519605 1.416663 -6.110038 4.469434 -19.724926 8.039362 21.641412 -6.709608 -9.812280 -15.986667 -79.625929 12.397366 -18.852413 -3.772361 27.933689 -18.182944 44.175355 17.653467 -29.741523 -1.042755 -11.426573 -5.773125 2.026312 -3.568995 -4.076904 -0.947993 6.589787 0.339818 0.074879 0.071479 0.042608 -0.032783 -10.180762 -1.955828 0.487241 -2.239648 -4.902978 -1.315544 4.658390 1.653846 -0.031371 -0.083445 -0.031803 
11.401942 4.961097 82.987053 -8.084642 -1.049571 -103.049038 -2.011334 -3.968824 7.174508 -0.826867 -1.793626 3.093986 -0.826867 -1.793625 3.093986 -0.611036 -1.349449 2.317878 1.466915 -23.388144 0.828553 2.855918 -7.282161 1.874349 10.982636 -0.481161 -14.299790 79.600766 10.492689 10.363398 1.412061 -5.714522 4.396531 -19.658160 8.079088 21.609848 -6.787004 -9.866518 -15.916446 -80.041600 12.887016 -18.847328 -4.751218 30.259391 -19.034815 41.060423 18.805379 -28.326236 -1.057985 -11.448889 -5.787295 2.051057 -3.671235 -4.078925 -0.971583 6.646225 0.288548 0.076274 0.073407 0.045563 -0.058520 -10.190349 -1.908821 0.531510 -2.346196 -4.985429 -1.314139 4.719341 1.614428 -0.038755 -0.088535 -0.034578 
11.405522 4.965847 82.986198 -8.149232 -1.057307 -102.993570 -2.044653 -3.932859 7.255494 -0.842136 -1.779346 3.130486 -0.842135 -1.779346 3.130485 -0.622453 -1.338867 2.345228 1.575378 -23.517496 0.739164 3.025216 -7.522583 1.738676 11.000015 -0.521658 -14.364434 79.723928 10.647739 10.237642 1.425219 -5.445421 4.274509 -19.473872 8.062173 21.491817 -6.856770 -9.924977 -15.850547 -80.405363 13.467722 -18.863693 -5.715749 32.537624 -19.780571 37.699106 19.651530 -27.001177 -1.068184 -11.473371 -5.799724 2.068408 -3.771881 -4.089090 -0.989178 6.700163 0.253898 0.076028 0.075666 0.049081 -0.090738 -10.194588 -1.904961 0.584373 -2.473705 -5.029246 -1.311629 4.791942 1.627201 -0.047222 -0.091000 -0.037908 
11.407199 4.969795 82.984177 -8.211995 -1.070261 -102.948866 -2.080407 -3.902453 7.330385 -0.858284 -1.767448 3.165307 -0.858284 -1.767448 3.165308 -0.634526 -1.330076 2.371315 1.695018 -23.636863 0.637369 3.211735 -7.744306 1.583632 11.013998 -0.510327 -14.434785 79.819626 10.767394 10.081240 1.433389 -5.300617 4.117053 -19.199534 8.015852 21.311230 -6.921154 -9.994703 -15.817212 -80.741968 14.124557 -18.900754 -6.466229 34.651790 -20.310870 34.076316 20.527022 -25.830485 -1.066474 -11.495111 -5.810789 2.070446 -3.869804 -4.086187 -1.000956 6.752817 0.214234 0.076185 0.074756 0.055634 -0.122450 -10.191082 -1.990964 0.647833 -2.621183 -5.007222 -1.311979 4.881345 1.647396 -0.058877 -0.094985 -0.044531 
